# xmcd
#
# Track frame offsets:
#	150
#	19946
#	36257
#	53794
#	63537
#	77765
#	88942
#	112881
#	141807
#	158639
#	172825
#	194505
#	215252
#	234822
#	255451
#
# Disc length: 3644 seconds
#
# Revision: 3
# Processed by: cddbd v1.5.2PL0 Copyright (c) Steve Scherf et al.
# Submitted via: EZCDAudioConverter 1.3.4.1
#
DISCID=c00e3a0f
DTITLE=Radiohead - OK Computer 2/2
DYEAR=2009
DGENRE=
TTITLE0=Polyethylene (Part 1 and 2)
TTITLE1=Pearly
TTITLE2=A Reminder
TTITLE3=Melatonin
TTITLE4=Meeting In The Aisle
TTITLE5=Lull
TTITLE6=Climbing Up The Walls [Zero 7 Mix]
TTITLE7=Climbing Up The Walls [Fila Brazillia Mix]
TTITLE8=Palo Alto
TTITLE9=How I Made My Millions
TTITLE10=Airbag [Live In Berlin]
TTITLE11=Lucky [Live In Florence]
TTITLE12=Climbing Up The Walls [BBC Radio One Evening Session_05.28.97]
TTITLE13=Exit Music (For A Film) [BBC Radio One Evening Session_05.28.97]
TTITLE14=No Surprises [BBC Radio One Evening Session_05.28.97]
EXTD=
EXTT0=
EXTT1=
EXTT2=
EXTT3=
EXTT4=
EXTT5=
EXTT6=
EXTT7=
EXTT8=
EXTT9=
EXTT10=
EXTT11=
EXTT12=
EXTT13=
EXTT14=
PLAYORDER=
